<?xml version="1.0" encoding="utf-8"?>
<svg viewBox="0 0 810.9 177" xmlns="http://www.w3.org/2000/svg">
  <g id="Layer_2" data-name="Layer 2">
    <g id="Layer_4" data-name="Layer 4">
      <g id="Bulkbet" transform="matrix(1, 0, 0, 1, -20, 0)">
        <path d="M284.7,89.4c10.6-3.1,18.5-11.7,18.5-24.9,0-17.3-13.2-28.3-35.4-28.3H218.7V145.3h50.8c23,0,36.2-11.7,36.2-29.7C305.7,103.2,297.5,92,284.7,89.4ZM245.3,57.5h17.4c8.7,0,13.5,4,13.5,11.5s-4.8,11.3-13.5,11.3H245.3Zm19.5,66.4H245.3V99.8h19.2c8.9,0,14.3,4.5,14.3,12.2S273.7,123.9,264.8,123.9Z" style="fill: rgb(99, 102, 241);"/>
        <path d="M380.1,105.7c0,11.8-6.5,18.3-16.7,18.3s-16.7-6.5-16.7-18.3V58.6H320.3v50.7c0,23.1,13.5,36.9,33.6,36.9,11.6,0,21-5.2,26.2-12.7v11.8h26.6V58.6H380.1Z" style="fill: rgb(99, 102, 241);"/>
        <rect x="425.8" y="30.3" width="26.6" height="115" style="fill: rgb(99, 102, 241);"/>
        <polygon points="557.3 58.6 524.5 58.6 498.2 93.9 498.2 30.3 471.7 30.3 471.7 145.3 498.2 145.3 498.2 108.9 524.6 145.3 557.6 145.3 521.2 102.1 557.3 58.6" style="fill: rgb(99, 102, 241);"/>
        <path d="M616,58.7c-15.1,0-26.4,7.8-31.8,17.3V30.3H570v115h14.2V129.6c5.2,9.3,16.3,17.1,31.8,17.1,22.9,0,40.4-17.9,40.4-44.3S639,58.7,616,58.7Zm-2.9,75.6c-15.4,0-28.9-11.7-28.9-31.7S597.7,71,613.1,71,642,82.4,642,102.4,628.8,134.3,613.1,134.3Z"/>
        <path d="M711.9,58.7c-24.9,0-42.1,17-42.1,43.9s17.9,44.1,42.1,44.1c21.1,0,34.8-12.1,39.2-27.7H735.8c-3.1,9.2-11.2,15.7-23.9,15.7-14.5,0-26.6-9.4-27.7-26.7h68.1a77.7,77.7,0,0,0,.5-8.5C752.8,76.1,736.6,58.7,711.9,58.7ZM684.4,96.5c1.5-16.6,13-25.8,26.9-25.8s27,9.2,26.9,25.8Z"/>
        <path d="M810.9,71.8V60.1H788.7V38.7H774.5V60.1h-11V71.8h11V122c0,17.1,8.6,23.3,23.6,23.3h12.8v-12H800.5c-8.7,0-11.8-2.9-11.8-11.3V71.8Z"/>
      </g>
      <path id="Icon" d="M 87.623 7 C 78.075 6.972 68.6 8.669 59.656 12.01 L 59.656 109.212 C 59.656 113.741 63.327 117.411 67.855 117.411 L 106.116 117.411 C 111.313 117.412 115.54 113.225 115.59 108.028 L 115.59 71.407 C 115.59 66.577 111.675 62.661 106.845 62.661 L 72.592 62.661 C 69.976 62.661 67.855 60.54 67.855 57.924 L 67.855 53.46 C 67.855 50.844 69.976 48.723 72.592 48.723 L 111.491 48.723 C 121.467 48.773 129.528 56.875 129.528 66.852 L 129.528 113.312 C 129.528 123.324 121.412 131.44 111.4 131.44 L 63.755 131.44 C 53.779 131.39 45.718 123.289 45.718 113.312 L 45.718 18.752 C -7.299 51.017 -5.506 128.575 48.945 158.356 C 103.396 188.137 169.667 147.805 168.232 85.759 C 167.22 41.967 131.427 6.995 87.623 7 Z M 79.333 105.295 C 77.966 109.126 72.965 110.041 70.331 106.942 C 69.344 105.781 68.906 104.251 69.13 102.744 C 69.624 100.873 71.085 99.412 72.956 98.918 C 76.798 97.99 80.261 101.454 79.333 105.295 Z M 107.3 105.295 C 106.326 109.244 101.442 110.658 98.509 107.84 C 95.577 105.022 96.794 100.085 100.701 98.954 C 100.745 98.942 100.788 98.93 100.832 98.918 C 104.675 98.026 108.138 101.44 107.3 105.295 Z M 102.199 72.044 C 105.088 71.992 107.443 74.348 107.391 77.237 C 107.442 80.14 105.102 82.521 102.199 82.521 C 99.281 82.521 96.915 80.155 96.915 77.237 C 96.915 74.333 99.295 71.993 102.199 72.044 Z M 83.159 88.715 C 83.594 86.862 85.041 85.415 86.894 84.98 C 90.75 83.927 94.3 87.444 93.284 91.31 C 93.28 91.326 93.275 91.341 93.271 91.357 C 92.837 93.211 91.39 94.658 89.536 95.092 C 85.68 96.145 82.13 92.629 83.146 88.763 C 83.151 88.747 83.155 88.731 83.159 88.715 Z M 74.232 72.044 C 77.135 71.993 79.516 74.333 79.515 77.237 C 79.515 81.304 75.112 83.846 71.59 81.813 C 69.955 80.869 68.948 79.125 68.948 77.237 C 68.947 74.333 71.328 71.993 74.232 72.044 Z" style="fill: rgb(99, 102, 241);"/>
    </g>
  </g>
</svg>