<?xml version="1.0" encoding="utf-8"?>
<svg viewBox="1412.26 636.44 322.52 227.12" xmlns="http://www.w3.org/2000/svg">
  <defs>
    <style>
		tspan { white-space:pre }
		.shp0 { display: none;fill: #ffffff } 
		.shp1 { fill: #0066b2 } 
		.shp2 { fill: #36495d } 
		.shp3 { fill: #006fcf } 
		.shp4 { fill: #ffffff } 
		.shp5 { fill: #f9a533 } 
		.shp6 { fill: #f16522 } 
		.shp7 { fill: #e41b24 } 
		.shp8 { fill: #f89e1c } 
		.shp9 { fill: #f7f7f7 } 
	</style>
  </defs>
  <path id="&lt;Path&gt;" class="shp3" d="M 1704.89 863.56 L 1442.14 863.56 C 1425.64 863.56 1412.26 850.18 1412.26 833.67 L 1412.26 666.33 C 1412.26 649.82 1425.64 636.44 1442.14 636.44 L 1704.89 636.44 C 1721.4 636.44 1734.78 649.82 1734.78 666.33 L 1734.78 833.67 C 1734.78 850.18 1721.4 863.56 1704.89 863.56 Z"/>
  <g id="&lt;Group&gt;">
    <g id="&lt;Group&gt;">
      <path id="&lt;Compound Path&gt;" class="shp9" d="M1695.07 746.58L1719.26 746.58L1719.26 690.28L1693.44 690.28L1693.44 699.28L1687.69 690.28L1665.18 690.28L1665.18 701.67L1660.14 690.28L1622.93 690.28C1621.14 690.28 1619.4 690.41 1617.7 690.68C1616.27 690.9 1614.87 691.22 1613.52 691.65C1612.46 691.98 1611.42 692.37 1610.43 692.82C1609.27 693.36 1608.15 693.98 1607.09 694.68L1607.09 692.75L1607.09 690.28L1485.65 690.28L1482.34 700.1L1478.97 690.28L1450.72 690.28L1450.72 701.79L1445.62 690.28L1422.57 690.28L1412.26 714.36L1412.26 741.57L1412.26 746.58L1428.58 746.58L1431.62 738.5L1437.37 738.5L1440.47 746.58L1566.09 746.58L1566.09 738.39L1572.38 746.58L1607.09 746.58L1607.09 744.78L1607.09 742.49C1607.99 743.07 1608.92 743.58 1609.87 744.02C1610.82 744.46 1611.79 744.83 1612.77 745.15C1613.98 745.54 1615.21 745.84 1616.44 746.07C1618.44 746.43 1620.44 746.58 1622.33 746.58L1643.11 746.58L1646.14 738.5L1651.89 738.5L1654.98 746.58L1689.81 746.58L1689.81 738.23L1695.07 746.58ZM1734.55 818.79L1734.55 765.96L1731.73 765.96L1534.62 765.96L1529.52 773.17L1524.48 765.96L1466.99 765.96L1466.99 822.26L1524.26 822.26L1529.25 814.93L1534.41 822.26L1570.26 822.26L1570.26 810.11L1569.88 810.11C1574.34 810.11 1578.39 809.3 1581.98 807.97L1581.98 822.26L1606.98 822.26L1606.98 814.07L1613.27 822.26L1721.75 822.26C1724.88 822.26 1727.8 821.73 1730.43 820.77C1731.9 820.24 1733.29 819.57 1734.55 818.79Z"/>
      <g id="&lt;Group&gt;">
        <path id="&lt;Compound Path&gt;" fill-rule="evenodd" class="shp3" d="M1725.72 801.65C1725.72 799.37 1724.14 797.96 1721.98 797.96L1713.24 797.96C1706.03 797.96 1701.42 793.95 1701.42 786.95C1701.42 780.11 1706.3 775.12 1714.49 775.12L1734.07 775.12L1730.7 782.83L1714.22 782.83C1712.05 782.83 1710.53 784.34 1710.53 786.62C1710.53 788.85 1712.05 790.26 1714.22 790.26L1723.01 790.26C1730.38 790.26 1734.78 794.21 1734.78 801C1734.78 808.1 1729.9 813.09 1721.7 813.09L1702.5 813.09L1702.5 805.5L1721.98 805.5C1724.14 805.5 1725.72 803.98 1725.72 801.65ZM1689.59 801.65C1689.59 799.37 1688.02 797.96 1685.85 797.96L1677.12 797.96C1669.9 797.96 1665.29 793.95 1665.29 786.95C1665.29 780.11 1670.17 775.12 1678.36 775.12L1697.95 775.12L1694.58 782.83L1678.09 782.83C1675.92 782.83 1674.41 784.34 1674.41 786.62C1674.41 788.85 1675.92 790.26 1678.09 790.26L1686.88 790.26C1694.26 790.26 1698.65 794.21 1698.65 801C1698.65 808.1 1693.77 813.09 1685.58 813.09L1666.38 813.09L1666.38 805.5L1685.85 805.5C1688.02 805.5 1689.59 803.98 1689.59 801.65ZM1639.58 782.83L1639.58 790.2L1660.36 790.2L1660.36 797.8L1639.58 797.8L1639.58 805.44L1660.85 805.44L1660.85 813.09L1630.47 813.09L1630.47 775.12L1660.85 775.12L1660.85 782.83L1639.58 782.83ZM1599.28 813.09L1590.17 813.09L1590.17 775.12L1610.78 775.12C1618.86 775.12 1623.91 780.06 1623.91 787.16C1623.91 793.24 1620.06 797.9 1613.6 799.1L1626.24 813.09L1614.9 813.09L1603.57 799.42L1599.28 799.42L1599.28 813.09ZM1599.28 782.88L1599.28 792.26L1609.97 792.26C1613.22 792.26 1614.96 790.2 1614.96 787.6C1614.96 784.99 1613.22 782.88 1609.97 782.88L1599.28 782.88ZM1572.11 775.12C1580.19 775.12 1585.23 780.28 1585.23 787.81C1585.23 795.14 1580.08 800.56 1571.78 800.56L1560.34 800.56L1560.34 813.09L1551.22 813.09L1551.22 775.12L1572.11 775.12ZM1571.24 783.21L1560.34 783.21L1560.34 792.53L1571.24 792.53C1574.44 792.53 1576.07 790.42 1576.07 787.87C1576.07 785.27 1574.44 783.21 1571.24 783.21ZM1528.5 800.89L1519.17 813.09L1508.1 813.09L1523.24 794.11L1508.05 775.12L1519.44 775.12L1528.71 787.16L1538.05 775.12L1549.11 775.12L1533.97 793.95L1549.22 813.09L1537.83 813.09L1528.5 800.89ZM1484.94 782.83L1484.94 790.2L1505.72 790.2L1505.72 797.8L1484.94 797.8L1484.94 805.44L1506.2 805.44L1506.2 813.09L1475.83 813.09L1475.83 775.12L1506.2 775.12L1506.2 782.83L1484.94 782.83Z"/>
      </g>
      <path id="&lt;Compound Path&gt;" fill-rule="evenodd" class="shp3" d="M1682.43 737.42L1673.54 737.42L1673.54 699.45L1684.71 699.45L1698.92 721.42L1700.6 724.24L1700.5 721.42L1700.5 699.45L1709.39 699.45L1709.39 737.42L1698.76 737.42L1684.22 714.69L1682.32 711.54L1682.43 714.69L1682.43 737.42ZM1657.91 729.28L1639.85 729.28L1636.65 737.42L1626.94 737.42L1643.21 699.45L1655.21 699.45L1671.42 737.42L1661.17 737.42L1657.91 729.28ZM1642.78 722.01L1654.99 722.01L1651.62 713.61L1648.86 706.5L1646.09 713.61L1642.78 722.01ZM1603.89 718.76L1603.89 718.11C1603.89 707.31 1610.29 699.45 1622.01 699.45L1632.64 699.45L1632.64 707.64L1622.77 707.64C1616.26 707.64 1612.95 712.14 1612.95 718.16L1612.95 718.71C1612.95 725.43 1616.64 729.34 1622.88 729.34L1625.64 729.34L1621.9 737.42L1621.41 737.42C1610.46 737.36 1603.89 730.04 1603.89 718.76ZM1589.03 699.45L1598.14 699.45L1598.14 737.42L1589.03 737.42L1589.03 699.45ZM1559.2 737.42L1550.08 737.42L1550.08 699.45L1570.7 699.45C1578.78 699.45 1583.83 704.39 1583.83 711.49C1583.83 717.56 1579.97 722.23 1573.52 723.42L1586.16 737.42L1574.82 737.42L1563.48 723.75L1559.2 723.75L1559.2 737.42ZM1559.2 707.21L1559.2 716.59L1569.88 716.59C1573.14 716.59 1574.87 714.53 1574.87 711.93C1574.87 709.32 1573.14 707.21 1569.88 707.21L1559.2 707.21ZM1522.15 707.15L1522.15 714.53L1542.93 714.53L1542.93 722.12L1522.15 722.12L1522.15 729.66L1543.41 729.66L1543.41 737.42L1513.04 737.42L1513.04 699.45L1543.41 699.45L1543.41 707.15L1522.15 707.15ZM1467.86 737.42L1459.01 737.42L1459.01 699.45L1475.02 699.45L1482.28 726.35L1489.5 699.45L1505.55 699.45L1505.55 737.42L1496.71 737.42L1496.71 711.44L1496.93 701.46L1486.41 737.42L1478.16 737.42L1467.64 701.24L1467.86 711.49L1467.86 737.42ZM1443.39 729.28L1425.33 729.28L1422.13 737.42L1412.42 737.42L1428.69 699.45L1440.68 699.45L1456.9 737.42L1446.65 737.42L1443.39 729.28ZM1428.26 722.01L1440.46 722.01L1437.1 713.61L1434.34 706.5L1431.57 713.61L1428.26 722.01Z"/>
    </g>
  </g>
</svg>