<?xml version="1.0" encoding="utf-8"?>
<svg viewBox="647.61 636.44 322.52 227.12" xmlns="http://www.w3.org/2000/svg">
  <defs>
    <style>
		tspan { white-space:pre }
		.shp0 { display: none;fill: #ffffff } 
		.shp1 { fill: #0066b2 } 
		.shp2 { fill: #36495d } 
		.shp3 { fill: #006fcf } 
		.shp4 { fill: #ffffff } 
		.shp5 { fill: #f9a533 } 
		.shp6 { fill: #f16522 } 
		.shp7 { fill: #e41b24 } 
		.shp8 { fill: #f89e1c } 
		.shp9 { fill: #f7f7f7 } 
	</style>
  </defs>
  <path id="&lt;Path&gt;" class="shp1" d="M 940.25 863.56 L 677.5 863.56 C 660.99 863.56 647.61 850.18 647.61 833.67 L 647.61 666.33 C 647.61 649.82 660.99 636.44 677.5 636.44 L 940.25 636.44 C 956.75 636.44 970.13 649.82 970.13 666.33 L 970.13 833.67 C 970.13 850.18 956.75 863.56 940.25 863.56 Z"/>
  <g id="&lt;Group&gt;">
    <g id="&lt;Group&gt;">
      <path id="&lt;Path&gt;" class="shp4" d="M795.18 785.58L778.38 785.58L788.88 721.06L805.68 721.06L795.18 785.58Z"/>
      <path id="&lt;Path&gt;" class="shp4" d="M764.25 721.06L748.24 765.43L746.34 755.88L746.34 755.88L740.69 726.87C740.24 722.99 737.58 721.06 732.72 721.06L706.25 721.06L705.94 722.15C711.34 723.27 717.19 725.73 723.51 729.53L738.1 785.58L755.61 785.58L782.33 721.06L764.25 721.06Z"/>
      <path id="&lt;Compound Path&gt;" fill-rule="evenodd" class="shp4" d="M894.41 776L873.06 776L869.55 785.58L852.04 785.58L877.1 725.87C878.11 722.66 880.69 721.06 884.85 721.06L898.36 721.06L911.8 785.58L896.38 785.58L894.41 776ZM891.69 762.75L886.72 738.61L877.9 762.75L891.69 762.75Z"/>
      <path id="&lt;Path&gt;" class="shp4" d="M853.36 736.57L855.75 722.71C850.82 720.84 845.79 719.9 840.65 719.9C832.31 719.9 812.51 723.55 812.51 741.26C812.51 757.93 835.75 758.14 835.75 766.89C835.75 775.65 814.91 774.08 808.03 768.56L805.53 783.04C810.53 785.48 816.85 786.69 824.5 786.69C835.96 786.69 853.25 780.75 853.25 764.6C853.25 747.83 829.81 746.26 829.81 738.97C829.81 731.67 846.17 732.61 853.36 736.57Z"/>
    </g>
    <path id="&lt;Path&gt;" class="shp5" d="M746.34 755.88L740.69 726.87C740.24 722.99 737.58 721.06 732.72 721.06L706.25 721.06L705.94 722.15C714.42 723.91 722.73 728.08 730.87 734.67C738.65 740.96 743.81 748.03 746.34 755.88Z"/>
  </g>
</svg>